<?xml version="1.0" standalone="no"?>
<!DOCTYPE svg PUBLIC "-//W3C//DTD SVG 20010904//EN"
 "http://www.w3.org/TR/2001/REC-SVG-20010904/DTD/svg10.dtd">
<svg version="1.0" xmlns="http://www.w3.org/2000/svg"
 width="512.000000pt" height="512.000000pt" viewBox="0 0 512.000000 512.000000"
 preserveAspectRatio="xMidYMid meet">

<g transform="translate(0.000000,512.000000) scale(0.100000,-0.100000)"
fill="#000000" stroke="none">
<path d="M2450 5113 c-459 -32 -879 -174 -1249 -422 l-83 -56 69 -5 c39 -3 77
-10 84 -17 8 -7 42 -18 74 -25 50 -11 61 -17 63 -36 3 -21 8 -22 88 -22 46 0
84 3 84 6 0 3 -5 14 -10 25 -8 15 -22 19 -58 19 -72 0 -93 8 -80 30 22 35 4
49 -67 52 l-66 3 70 53 c70 52 71 52 145 52 l75 0 33 -44 c31 -41 37 -44 88
-49 52 -5 57 -3 91 30 32 30 40 33 58 24 12 -7 21 -15 21 -19 0 -4 -19 -27
-43 -50 -41 -40 -45 -42 -106 -42 -53 0 -62 -2 -57 -16 3 -9 6 -29 6 -45 l0
-29 78 0 c74 0 79 2 90 24 9 21 19 25 64 28 50 3 53 4 59 35 6 29 4 32 -20 35
-33 4 -38 31 -12 57 22 22 93 28 172 15 l36 -6 -43 -40 c-38 -35 -42 -43 -37
-71 3 -18 6 -33 7 -34 1 0 22 -4 49 -8 l47 -7 0 61 0 62 53 24 c31 14 83 26
129 30 l78 7 120 -53 120 -53 0 -47 c0 -46 1 -47 35 -53 41 -8 41 -10 15 -53
-18 -31 -24 -33 -73 -33 -53 0 -54 0 -69 -39 l-16 -39 -108 25 c-60 14 -113
29 -117 33 -5 4 33 29 84 55 l92 47 -39 34 c-21 18 -44 32 -50 30 -6 -2 -42
-7 -80 -11 -60 -6 -73 -11 -105 -42 -25 -24 -49 -36 -78 -40 -46 -6 -50 -14
-22 -42 23 -23 18 -31 -21 -31 -21 0 -28 -5 -28 -20 0 -16 -7 -20 -35 -20 -28
0 -35 4 -35 19 0 47 -7 51 -63 34 -43 -12 -232 -113 -273 -145 -16 -12 9 -96
33 -114 23 -17 67 -31 126 -39 l47 -6 0 -70 0 -69 28 0 c25 0 32 8 56 58 28
58 29 59 97 81 l69 22 0 88 0 88 38 27 38 26 90 -21 90 -21 -6 -54 c-3 -30 -4
-57 -1 -59 11 -12 47 -2 111 30 l70 35 0 -75 0 -75 50 -31 c48 -29 50 -33 50
-74 0 -44 -1 -44 -49 -61 -62 -22 -58 -41 15 -73 50 -22 54 -26 54 -57 0 -40
-2 -41 -100 -11 -62 19 -76 27 -78 46 -2 15 4 28 18 38 27 19 23 57 -6 61 -14
2 -23 -3 -26 -16 -4 -14 -18 -20 -59 -25 -50 -6 -55 -5 -72 18 -14 19 -28 25
-55 25 -48 0 -65 -12 -60 -41 2 -19 12 -26 46 -34 l43 -11 -24 -22 c-22 -21
-26 -21 -52 -8 -29 15 -30 14 -85 -37 -31 -29 -55 -56 -53 -62 2 -5 -30 -27
-69 -49 -102 -54 -244 -194 -253 -248 -6 -35 -15 -44 -83 -90 -43 -28 -96 -69
-119 -91 l-42 -40 6 -79 6 -78 -54 24 c-53 23 -54 24 -57 70 l-3 46 -150 0
-149 0 -78 -39 c-73 -37 -81 -44 -111 -100 -17 -33 -38 -82 -46 -108 -14 -45
-13 -52 6 -100 l21 -52 63 -6 63 -7 90 61 c50 34 95 61 100 61 5 0 12 -14 16
-31 5 -24 -1 -44 -24 -84 l-30 -53 22 -5 c13 -3 45 -9 71 -13 27 -3 51 -12 53
-18 2 -6 7 -58 12 -116 l7 -105 100 -18 100 -17 35 37 c19 21 49 55 67 75 l32
38 78 -16 c45 -10 83 -23 89 -33 46 -64 45 -64 122 -56 50 5 72 11 72 20 0 23
17 26 52 9 22 -10 50 -41 82 -90 l48 -74 67 -1 c36 0 74 -4 85 -8 33 -13 76
-109 76 -172 l0 -56 98 -36 c90 -35 105 -37 204 -37 l107 0 32 -54 c28 -46 39
-56 76 -67 24 -6 46 -16 49 -20 14 -23 -13 -85 -65 -153 l-57 -74 -13 -128
c-17 -180 -16 -178 -68 -218 -44 -34 -50 -36 -122 -36 l-76 0 -24 -44 c-24
-43 -24 -44 -8 -109 10 -36 17 -73 17 -82 0 -8 -35 -59 -77 -112 -42 -53 -89
-118 -103 -145 -24 -43 -36 -53 -109 -88 -45 -22 -92 -40 -104 -40 -12 0 -32
-3 -45 -6 -35 -10 -25 -46 16 -58 27 -7 31 -13 26 -30 -3 -12 -20 -35 -36 -52
-29 -31 -29 -32 -13 -58 14 -21 25 -26 57 -26 40 0 40 0 36 -32 -3 -18 -11
-54 -18 -79 l-13 -47 34 -30 c19 -17 45 -39 58 -49 17 -14 22 -25 17 -41 -7
-20 -14 -22 -86 -22 l-79 0 -75 66 c-61 53 -85 84 -133 169 l-59 104 9 100 8
101 -45 59 -46 59 19 101 18 100 -28 10 -29 10 0 219 0 219 -77 55 c-43 31
-94 59 -113 63 -40 9 -50 19 -50 57 0 19 -30 64 -101 154 l-101 126 11 44 c6
23 11 74 11 112 l0 69 71 48 c78 55 72 36 53 165 -6 44 -7 44 -134 54 -71 5
-62 -2 -172 125 -45 52 -51 56 -135 77 -87 22 -88 22 -85 52 3 26 0 30 -29 36
-47 9 -59 8 -59 -9 0 -21 -2 -21 -183 26 -31 8 -45 22 -83 78 l-45 68 17 35
17 36 -71 103 c-51 76 -72 116 -76 149 -15 99 -15 100 -47 100 -25 0 -29 -3
-25 -22 3 -13 8 -45 11 -73 5 -36 20 -71 55 -125 38 -58 47 -81 43 -102 -4
-20 -11 -28 -27 -28 -49 0 -64 13 -114 99 l-52 87 0 100 0 101 -50 23 -50 23
0 71 c-1 66 -2 69 -14 46 -25 -45 -87 -232 -116 -350 -141 -570 -87 -1152 157
-1687 345 -757 1062 -1311 1879 -1453 782 -136 1579 94 2159 623 90 82 257
257 263 277 2 6 -14 10 -37 10 l-41 0 0 85 0 85 -45 61 -45 61 0 101 0 101
-39 41 c-59 59 -58 102 2 221 l45 90 -89 155 -90 154 6 60 c3 33 8 83 11 111
l6 51 -80 7 c-70 6 -83 11 -108 37 -25 26 -34 29 -89 29 -53 0 -65 -4 -85 -25
-22 -23 -30 -25 -122 -25 -59 0 -98 -4 -98 -10 0 -5 -24 -10 -53 -10 l-54 0
-121 139 -122 140 0 111 c0 101 2 112 19 117 11 3 21 17 25 35 10 52 8 58 -23
58 -24 0 -29 5 -35 31 -3 17 -6 37 -6 45 0 7 63 58 140 114 l140 101 0 73 0
72 68 36 c65 35 70 37 142 31 68 -5 81 -3 128 21 52 26 173 45 299 46 l42 0 3
-72 3 -72 107 -27 c60 -15 119 -34 133 -43 13 -9 33 -16 45 -16 16 0 20 6 20
34 0 19 4 37 8 40 4 2 35 7 67 11 60 7 60 6 120 -39 l60 -45 106 -1 c58 0 108
3 111 6 4 3 -8 49 -26 102 l-33 97 -70 3 c-69 3 -71 4 -102 43 -25 30 -34 53
-38 94 -3 30 -9 55 -12 55 -3 0 -20 -8 -37 -19 -25 -15 -33 -29 -43 -77 -7
-33 -16 -63 -18 -67 -3 -5 -27 13 -54 39 -45 45 -49 52 -49 97 0 48 -2 52 -62
108 -61 57 -64 58 -120 59 -32 0 -58 -1 -58 -3 0 -2 7 -23 15 -48 14 -39 23
-48 85 -82 71 -39 92 -58 72 -65 -7 -2 -12 -22 -12 -46 0 -36 -4 -45 -25 -54
-40 -19 -82 -14 -105 10 -30 32 -25 40 23 33 35 -5 44 -3 54 13 11 18 3 26
-87 86 -70 46 -101 73 -106 91 -3 14 -8 25 -11 25 -3 0 -21 -14 -40 -31 -30
-26 -42 -30 -81 -27 l-46 3 -58 -75 c-33 -41 -66 -92 -75 -112 l-15 -38 -105
0 c-74 0 -113 4 -133 15 -17 9 -30 19 -30 23 0 4 -5 35 -10 69 -8 50 -7 70 4
97 13 30 21 36 70 47 45 10 70 10 123 0 36 -6 68 -10 70 -7 3 2 6 20 6 38 2
27 -2 34 -21 36 -22 3 -23 7 -17 45 11 74 12 75 68 82 70 10 79 16 128 85 37
53 46 60 86 66 24 3 72 3 105 0 l61 -7 -6 56 c-3 32 -8 60 -11 62 -3 3 -27 -3
-54 -14 l-49 -21 -20 48 c-17 40 -26 49 -49 52 -25 3 -29 8 -32 37 -5 44 24
74 100 103 43 17 64 31 75 51 8 16 13 30 11 31 -2 1 -40 32 -85 69 -261 212
-609 390 -943 480 -250 68 -561 98 -820 80z m1459 -903 c16 -75 73 -155 124
-173 8 -3 1 -16 -17 -36 -29 -30 -33 -31 -113 -31 l-82 0 5 33 c9 51 11 55 36
59 14 2 24 11 26 24 2 16 -9 29 -47 54 -53 33 -64 60 -38 92 15 19 33 26 69
27 24 1 27 -4 37 -49z m-108 -70 c36 -20 24 -56 -34 -100 -65 -49 -117 -56
-117 -15 0 34 50 113 75 118 38 8 56 7 76 -3z m-1348 -306 c10 -11 -5 -34 -22
-34 -9 0 -21 -10 -26 -22 -17 -39 -95 -36 -95 2 0 17 7 20 39 20 30 0 40 4 44
20 5 19 45 29 60 14z m-193 -74 c0 -11 -10 -20 -25 -22 -20 -4 -25 -1 -25 16
0 31 20 49 37 35 7 -7 13 -19 13 -29z"/>
</g>
</svg>
