<?xml version="1.0" standalone="no"?>
<!DOCTYPE svg PUBLIC "-//W3C//DTD SVG 20010904//EN"
 "http://www.w3.org/TR/2001/REC-SVG-20010904/DTD/svg10.dtd">
<svg version="1.0" xmlns="http://www.w3.org/2000/svg"
 width="312.000000pt" height="312.000000pt" viewBox="0 0 512.000000 512.000000"
 preserveAspectRatio="xMidYMid meet">

<g transform="translate(0.000000,512.000000) scale(0.100000,-0.100000)"
fill="#000000" stroke="none">
<path d="M2821 5100 c-134 -36 -577 -277 -891 -485 -665 -442 -967 -862 -886
-1229 34 -150 140 -312 284 -432 37 -31 132 -99 212 -152 196 -129 289 -203
390 -308 134 -139 214 -272 256 -424 27 -98 25 -308 -4 -417 -87 -321 -341
-668 -747 -1017 -258 -222 -440 -354 -830 -604 l-50 -32 1710 0 1710 0 86 133
c298 457 485 904 543 1298 20 134 20 356 1 477 -59 361 -261 663 -595 887
-173 116 -328 190 -605 290 -587 210 -910 406 -1065 646 -197 305 -30 656 482
1012 142 98 264 171 473 278 l190 99 -295 -1 c-259 0 -304 -2 -369 -19z m-533
-536 c43 -48 20 -101 -61 -142 -37 -18 -50 -20 -73 -12 -83 32 -68 121 28 169
49 24 73 20 106 -15z m-379 -291 c11 -10 24 -32 27 -49 5 -26 -2 -41 -55 -107
-58 -72 -64 -77 -100 -77 -31 0 -44 6 -60 26 -37 47 -22 91 62 178 48 51 88
60 126 29z m-225 -486 c20 -20 25 -38 31 -114 8 -102 1 -124 -44 -142 -24 -10
-34 -10 -59 3 -38 20 -54 65 -56 158 -1 65 1 71 27 94 35 30 71 31 101 1z
m270 -531 c58 -54 66 -66 66 -98 0 -28 -6 -42 -26 -57 -49 -38 -91 -23 -172
62 -57 62 -64 89 -32 130 20 25 50 36 81 29 9 -2 46 -32 83 -66z m425 -288
c31 -17 66 -40 79 -51 47 -43 12 -127 -53 -127 -37 0 -159 63 -180 93 -21 30
-19 59 6 91 29 36 76 35 148 -6z m454 -229 c116 -60 146 -98 122 -156 -17 -39
-60 -56 -101 -38 -49 20 -141 83 -148 100 -12 33 -5 66 19 90 30 31 53 31 108
4z m438 -351 c46 -50 89 -119 89 -142 0 -51 -59 -94 -104 -76 -39 15 -126 137
-126 176 0 76 86 101 141 42z m190 -471 c28 -22 39 -55 39 -120 0 -74 -14
-123 -40 -137 -31 -16 -72 -11 -97 12 -21 20 -23 30 -23 117 0 83 3 97 22 118
24 25 72 30 99 10z m-102 -543 c29 -37 27 -55 -20 -144 -44 -85 -76 -108 -123
-90 -27 10 -56 47 -56 71 0 18 65 145 88 172 24 28 86 23 111 -9z m-309 -444
c47 -47 37 -82 -53 -177 -59 -62 -97 -70 -137 -28 -37 39 -31 74 25 140 27 31
58 63 69 71 29 20 73 17 96 -6z m-389 -389 c45 -45 35 -84 -35 -140 -48 -38
-88 -40 -121 -6 -26 25 -32 63 -15 95 13 24 98 80 122 80 11 0 33 -13 49 -29z"/>
</g>
</svg>
